<?xml version="1.0" encoding="utf-8"?>
<!-- Generator: Adobe Illustrator 27.0.1, SVG Export Plug-In . SVG Version: 6.00 Build 0)  -->
<svg version="1.1" xmlns="http://www.w3.org/2000/svg" xmlns:xlink="http://www.w3.org/1999/xlink" x="0px" y="0px"
	 viewBox="0 0 440 440" style="enable-background:new 0 0 440 440;" xml:space="preserve">
<style type="text/css">
	.st0{display:none;}
	.st1{display:inline;}
	.st2{fill:#B50208;}
	.st3{fill:#FFFFFF;}
</style>
<g id="_x32_" class="st0">
	<g class="st1">
		<polygon class="st2" points="348,285 348,165.9 279.7,225.5 		"/>
		<path class="st2" d="M308.2,92H131.8c-22,0-39.8,17.8-39.8,39.8v1.2l113.9,99.3c4.1,3.5,9,5.3,14.1,5.3c5,0,10-1.7,14.1-5.3
			L348,132.9v-1.2C348,109.8,330.2,92,308.2,92z"/>
		<path class="st2" d="M250.4,251c-8.7,7.6-19.6,11.4-30.4,11.4c-10.8,0-21.7-3.8-30.4-11.4l-10.4-9L93,317.1
			c4,17.7,19.8,30.9,38.7,30.9h176.5c18.9,0,34.7-13.2,38.7-30.9L260.8,242L250.4,251z"/>
		<polygon class="st2" points="92,165.9 92,285 160.3,225.5 		"/>
	</g>
</g>
<g id="レイヤー_2">
	<g>
		<polygon class="st3" points="355.2,240.7 320.3,204.5 355.2,174.4 		"/>
		<polygon class="st3" points="119.8,204.5 84.8,240.7 84.8,174.4 		"/>
		<path class="st3" d="M355.2,273.6V307c0,8.1-6.5,14.6-14.6,14.6H99.4c-8.1,0-14.6-6.5-14.6-14.6v-33.4l52.3-54.2l59.7,51.4
			c6.2,5.3,14.4,8.3,23.2,8.3c8.8,0,17.1-3,23.3-8.3l59.6-51.4L355.2,273.6z"/>
		<path class="st3" d="M355.2,132.9v14.6L227.7,257.4c-4.1,3.5-11.3,3.5-15.4,0L84.8,147.6v-14.6c0-8.1,6.5-14.6,14.6-14.6h241.1
			C348.6,118.4,355.2,124.9,355.2,132.9z"/>
	</g>
</g>
</svg>
