<?xml version="1.0" encoding="utf-8"?>
<!-- Generator: Adobe Illustrator 27.0.1, SVG Export Plug-In . SVG Version: 6.00 Build 0)  -->
<svg version="1.1" id="_x32_" xmlns="http://www.w3.org/2000/svg" xmlns:xlink="http://www.w3.org/1999/xlink" x="0px" y="0px"
	 viewBox="0 0 440 440" style="enable-background:new 0 0 440 440;" xml:space="preserve">
<style type="text/css">
	.st0{fill:#FFFFFF;}
</style>
<g>
	<path class="st0" d="M252.9,271c-3.3-3.3-8.5-3.5-12.1-0.6l-17,13.7c-3.4,2.7-8.2,2.7-11.5-0.1c0,0-14.5-9.8-30.5-25.8
		S156,227.7,156,227.7c-2.8-3.3-2.8-8.1-0.1-11.5l13.7-17c2.9-3.6,2.6-8.8-0.6-12.1l-32.6-32.6c-3.3-3.3-8.6-3.5-12.2-0.5
		l-40.9,34.3c-3.3,2.8-4.2,7.4-2.2,11.2c0,0,5.5,11.2,10.6,19.8c14,23.6,36.8,51.5,57.2,71.8c20.3,20.3,48.2,43.1,71.9,57.2
		c8.6,5.1,19.8,10.6,19.8,10.6c3.8,2,8.5,1.1,11.2-2.2l34.4-40.9c3-3.6,2.8-8.9-0.5-12.2L252.9,271z"/>
	<path class="st0" d="M261,227.3l13.6-2.2c-2.3-14.4-9-28.4-20.2-39.5c-11.1-11.1-25.1-17.9-39.5-20.2l-2.2,13.6
		c11.7,1.9,22.9,7.3,31.9,16.3C253.7,204.4,259.1,215.6,261,227.3z"/>
	<path class="st0" d="M315.6,124.4C291,99.9,260.2,85,228.3,80l-2.1,13.6c29.2,4.6,57.1,18.1,79.6,40.6s36,50.5,40.6,79.6l13.6-2.1
		C355,179.7,340.1,149,315.6,124.4z"/>
	<path class="st0" d="M221.6,122.7l-2.1,13.6c20.4,3.2,40.1,12.7,55.8,28.4c15.8,15.8,25.2,35.4,28.4,55.8l13.6-2.1
		c-3.6-23.2-14.4-45.5-32.3-63.4S244.8,126.3,221.6,122.7z"/>
</g>
</svg>
